<?xml version="1.0" standalone="no"?>
<!DOCTYPE svg PUBLIC "-//W3C//DTD SVG 20010904//EN"
 "http://www.w3.org/TR/2001/REC-SVG-20010904/DTD/svg10.dtd">
<svg version="1.0" xmlns="http://www.w3.org/2000/svg"
 width="657.000000pt" height="1280.000000pt" viewBox="0 0 657.000000 1280.000000"
 preserveAspectRatio="xMidYMid meet">
<metadata>
Created by potrace 1.15, written by Peter Selinger 2001-2017
</metadata>
<g transform="translate(0.000000,1280.000000) scale(0.100000,-0.100000)"
fill="#000000" stroke="none">
<path d="M2628 12780 c-137 -25 -200 -47 -289 -105 -134 -87 -224 -203 -277
-360 -25 -76 -27 -90 -27 -271 0 -147 -3 -195 -14 -207 -11 -14 -11 -26 -2
-61 6 -25 11 -80 11 -123 0 -43 5 -96 10 -118 13 -50 20 -315 9 -315 -18 0
-135 -104 -166 -147 -40 -56 -73 -157 -73 -222 0 -42 -4 -51 -44 -90 -37 -36
-44 -49 -40 -71 5 -25 2 -28 -53 -48 -41 -15 -86 -45 -151 -101 -51 -44 -97
-83 -103 -87 -5 -3 -47 29 -92 73 -72 68 -95 83 -184 122 -57 24 -132 61 -167
82 -36 21 -68 39 -71 39 -4 0 -148 59 -321 130 -337 141 -346 143 -360 82 -3
-15 -7 -32 -9 -38 -6 -19 31 -70 72 -100 78 -57 71 -56 -105 12 -63 24 -125
44 -138 44 -49 0 -57 -101 -12 -147 13 -12 120 -65 240 -116 224 -98 430 -207
391 -207 -12 0 -64 -20 -115 -45 -111 -54 -216 -145 -307 -266 -82 -108 -81
-139 4 -139 51 0 98 27 125 71 20 31 44 48 136 94 l112 55 95 -11 c91 -12 98
-14 133 -50 l37 -38 -38 -15 c-20 -9 -55 -21 -77 -28 -46 -14 -47 -15 -87
-138 -32 -98 -40 -185 -21 -234 14 -38 60 -36 94 5 14 17 26 40 26 52 1 12 14
49 29 81 27 56 31 60 84 76 47 15 57 15 69 3 8 -7 38 -16 67 -20 48 -5 61 -13
169 -105 64 -55 120 -105 123 -111 4 -7 14 -97 24 -202 18 -209 21 -221 75
-338 60 -132 87 -215 165 -517 73 -284 125 -463 144 -498 16 -31 88 -91 178
-149 131 -84 233 -162 233 -178 0 -8 -5 -59 -11 -113 -8 -80 -7 -126 6 -241
l16 -141 -140 -264 c-78 -145 -148 -282 -156 -306 -11 -31 -15 -86 -15 -199
-1 -91 -7 -189 -15 -236 -26 -140 -18 -198 28 -207 14 -2 -6 -29 -86 -114
-100 -105 -110 -112 -204 -154 -54 -24 -100 -45 -102 -47 -2 -1 10 -59 28
-127 17 -69 31 -143 31 -165 0 -31 5 -42 27 -56 26 -17 27 -17 44 4 9 11 25
21 34 21 25 0 12 -31 -65 -151 -57 -90 -90 -163 -228 -510 -237 -597 -229
-571 -251 -828 -18 -208 -21 -220 -61 -325 -22 -60 -48 -122 -56 -138 -10 -19
-18 -79 -24 -166 -11 -171 -4 -959 11 -1269 10 -185 9 -265 -1 -387 l-13 -155
34 -67 c18 -37 48 -86 66 -110 l33 -43 -30 -80 c-16 -44 -38 -98 -50 -120 -11
-22 -20 -52 -20 -67 0 -45 -93 -159 -150 -183 -26 -11 -91 -60 -145 -108 -54
-49 -111 -99 -127 -112 -48 -38 -260 -374 -272 -431 -4 -17 3 -42 21 -75 24
-43 35 -52 78 -66 77 -26 248 -41 322 -29 87 14 228 56 298 89 74 34 113 72
164 159 38 64 258 326 304 362 44 34 146 79 224 99 43 10 113 32 153 48 65 25
80 36 123 88 84 105 137 231 107 261 -6 6 2 27 21 57 51 82 51 84 14 194 -19
56 -48 123 -65 151 l-31 50 -2 274 c-1 150 4 348 11 440 9 122 9 180 1 217
l-11 51 79 93 c115 133 263 347 404 579 149 247 393 596 588 841 79 100 210
265 291 367 l146 185 52 -3 c51 -4 53 -5 105 -72 30 -37 101 -148 160 -246 63
-107 138 -218 186 -275 44 -53 193 -268 331 -478 265 -405 276 -425 300 -584
14 -92 56 -180 117 -247 28 -30 57 -69 66 -86 9 -17 32 -43 51 -58 l36 -27 0
-82 c0 -45 5 -137 9 -204 8 -106 7 -131 -10 -195 -15 -61 -17 -82 -8 -133 12
-65 7 -84 -35 -142 -13 -18 -26 -54 -30 -83 -4 -28 -32 -121 -62 -206 l-55
-154 31 -70 c24 -55 29 -77 24 -109 -5 -30 -1 -51 15 -83 27 -57 123 -177 164
-206 32 -23 293 -112 328 -112 33 0 208 -171 359 -350 202 -241 275 -309 396
-369 155 -76 316 -63 448 37 70 53 80 80 71 187 -8 97 -24 133 -113 260 -76
107 -201 236 -286 296 -38 27 -113 85 -167 129 -115 95 -111 85 -110 336 1
141 -1 167 -19 205 -26 58 -25 92 5 137 13 20 33 75 44 122 19 81 68 491 92
765 6 72 17 150 24 175 7 25 16 63 20 85 3 22 13 59 20 82 26 75 36 169 26
231 -5 31 -33 120 -61 197 -43 115 -55 165 -70 275 -23 167 -30 195 -68 292
-41 101 -52 173 -52 341 l0 138 -109 267 c-153 376 -180 451 -272 767 -77 264
-85 286 -144 385 -35 58 -86 152 -114 208 l-52 104 40 37 c49 45 51 65 15 141
-23 51 -25 61 -18 155 6 98 6 102 -36 228 -23 70 -80 208 -126 305 -74 152
-96 212 -160 432 -42 140 -101 318 -131 395 -48 120 -56 149 -55 199 1 33 -5
105 -13 160 -10 65 -15 176 -15 322 0 198 -3 238 -26 361 -42 223 -42 215 -1
297 37 71 89 253 142 489 24 111 26 137 28 405 4 539 1 587 -38 761 -48 213
-95 287 -256 407 l-91 68 -97 7 c-53 4 -120 12 -149 19 -49 11 -56 10 -103
-15 -50 -26 -51 -26 -76 -8 -62 44 -80 53 -107 53 -16 0 -65 14 -108 31 l-78
32 2 98 c2 83 0 101 -16 118 -11 12 -23 21 -28 21 -5 0 -27 12 -51 27 -23 15
-43 28 -45 29 -2 1 3 15 11 31 9 17 11 35 6 48 -4 11 -8 37 -8 58 -1 56 -14
72 -77 97 l-56 23 6 46 c4 25 9 100 12 166 6 112 4 126 -21 205 -35 109 -62
161 -122 235 -92 113 -234 195 -398 230 -90 19 -155 18 -287 -5z"/>
</g>
</svg>
